<?xml version="1.0" encoding="UTF-8"?>
<!DOCTYPE svg PUBLIC "-//W3C//DTD SVG 1.1//EN" "http://www.w3.org/Graphics/SVG/1.1/DTD/svg11.dtd">
<svg xmlns="http://www.w3.org/2000/svg" version="1.1" width="2250px" height="2250px" style="shape-rendering:geometricPrecision; text-rendering:geometricPrecision; image-rendering:optimizeQuality; fill-rule:evenodd; clip-rule:evenodd" xmlns:xlink="http://www.w3.org/1999/xlink">
<g><path style="opacity:1" fill="#fefefe" d="M -0.5,-0.5 C 749.5,-0.5 1499.5,-0.5 2249.5,-0.5C 2249.5,749.5 2249.5,1499.5 2249.5,2249.5C 1499.5,2249.5 749.5,2249.5 -0.5,2249.5C -0.5,1499.5 -0.5,749.5 -0.5,-0.5 Z"/></g>
<g><path style="opacity:1" fill="#8c52fe" d="M 1531.5,325.5 C 1531.74,329.41 1530.9,333.077 1529,336.5C 1514.17,351.333 1499.33,366.167 1484.5,381C 1511.82,377.334 1539.15,373.334 1566.5,369C 1585.75,366.252 1594.58,374.419 1593,393.5C 1592.11,396.952 1590.44,399.952 1588,402.5C 1558.27,432.395 1528.44,462.062 1498.5,491.5C 1480.97,497.243 1470.97,491.076 1468.5,473C 1468.62,470.449 1468.96,467.949 1469.5,465.5C 1484.63,449.868 1499.96,434.368 1515.5,419C 1487.44,422.247 1459.44,426.247 1431.5,431C 1419.47,433.404 1411.3,428.904 1407,417.5C 1405.7,411.078 1406.7,405.078 1410,399.5C 1434.7,374.965 1459.2,350.299 1483.5,325.5C 1490.04,318.798 1497.04,312.631 1504.5,307C 1516.87,303.679 1525.7,307.845 1531,319.5C 1531.5,321.473 1531.66,323.473 1531.5,325.5 Z"/></g>
<g><path style="opacity:1" fill="#ce77e7" d="M 1483.5,325.5 C 1459.2,350.299 1434.7,374.965 1410,399.5C 1406.7,405.078 1405.7,411.078 1407,417.5C 1411.3,428.904 1419.47,433.404 1431.5,431C 1459.44,426.247 1487.44,422.247 1515.5,419C 1499.96,434.368 1484.63,449.868 1469.5,465.5C 1450.83,483.833 1432.17,502.167 1413.5,520.5C 1412.83,501.833 1412.17,483.167 1411.5,464.5C 1407.55,452.515 1399.22,447.682 1386.5,450C 1380,452.5 1375.5,457 1373,463.5C 1372.33,501.167 1372.33,538.833 1373,576.5C 1375.26,582.552 1379.43,586.719 1385.5,589C 1422.83,589.667 1460.17,589.667 1497.5,589C 1509.96,584.916 1514.8,576.416 1512,563.5C 1509.74,556.903 1505.24,552.736 1498.5,551C 1479.16,550.833 1459.82,550.333 1440.5,549.5C 1460.19,530.479 1479.52,511.146 1498.5,491.5C 1528.44,462.062 1558.27,432.395 1588,402.5C 1590.44,399.952 1592.11,396.952 1593,393.5C 1594.58,374.419 1585.75,366.252 1566.5,369C 1539.15,373.334 1511.82,377.334 1484.5,381C 1499.33,366.167 1514.17,351.333 1529,336.5C 1530.9,333.077 1531.74,329.41 1531.5,325.5C 1547.5,325.333 1563.5,325.5 1579.5,326C 1610.43,332.263 1629.6,350.763 1637,381.5C 1637.67,444.833 1637.67,508.167 1637,571.5C 1630.71,604.795 1610.87,624.295 1577.5,630C 1517.17,630.667 1456.83,630.667 1396.5,630C 1370.91,625.95 1352.74,612.116 1342,588.5C 1340.04,583.323 1338.71,577.99 1338,572.5C 1337.33,508.167 1337.33,443.833 1338,379.5C 1345.3,352.861 1362.14,335.361 1388.5,327C 1420.13,325.537 1451.79,325.037 1483.5,325.5 Z"/></g>
<g><path style="opacity:1" fill="#6b29ed" d="M 1332.5,612.5 C 1332.17,597.99 1332.5,583.657 1333.5,569.5C 1341.38,609.217 1365.05,633.717 1404.5,643C 1462.48,644.634 1520.48,644.968 1578.5,644C 1616.89,637.937 1642.06,616.437 1654,579.5C 1655.22,574.209 1656.22,568.876 1657,563.5C 1657.67,505.167 1657.67,446.833 1657,388.5C 1654.74,376.204 1650.9,364.87 1645.5,354.5C 1680.42,368.688 1702.59,394.021 1712,430.5C 1713.65,493.797 1713.98,557.13 1713,620.5C 1704.78,665.725 1678.61,694.892 1634.5,708C 1630.15,708.573 1625.82,709.24 1621.5,710C 1554.5,710.667 1487.5,710.667 1420.5,710C 1374.74,700.244 1345.91,672.744 1334,627.5C 1333.09,622.536 1332.59,617.536 1332.5,612.5 Z"/></g>
<g><path style="opacity:1" fill="#a983f3" d="M 1331.5,420.5 C 1331.5,419.167 1331.5,417.833 1331.5,416.5C 1306.5,416.5 1281.5,416.5 1256.5,416.5C 1256.5,542.833 1256.5,669.167 1256.5,795.5C 1440.17,795.5 1623.83,795.5 1807.5,795.5C 1807.83,795.5 1808.17,795.5 1808.5,795.5C 1624.33,796.5 1440,796.833 1255.5,796.5C 1255.5,669.5 1255.5,542.5 1255.5,415.5C 1281.17,415.5 1306.83,415.5 1332.5,415.5C 1332.78,417.415 1332.45,419.081 1331.5,420.5 Z"/></g>
<g><path style="opacity:1" fill="#eecef6" d="M 812.5,795.5 C 702.668,796.499 592.668,796.833 482.5,796.5C 482.5,669.5 482.5,542.5 482.5,415.5C 592.833,415.5 703.167,415.5 813.5,415.5C 813.833,542.334 813.5,669.001 812.5,795.5 Z"/></g>
<g><path style="opacity:1" fill="#ce77e7" d="M 812.5,795.5 C 702.833,795.5 593.167,795.5 483.5,795.5C 483.5,669.167 483.5,542.833 483.5,416.5C 593.167,416.5 702.833,416.5 812.5,416.5C 812.5,542.833 812.5,669.167 812.5,795.5 Z"/></g>
<g><path style="opacity:1" fill="#b995ff" d="M 1235.5,416.5 C 1101.5,416.5 967.5,416.5 833.5,416.5C 833.5,542.833 833.5,669.167 833.5,795.5C 967.5,795.5 1101.5,795.5 1235.5,795.5C 1101.33,796.5 967.001,796.833 832.5,796.5C 832.5,669.5 832.5,542.5 832.5,415.5C 967.001,415.167 1101.33,415.5 1235.5,416.5 Z"/></g>
<g><path style="opacity:1" fill="#935fff" d="M 1235.5,416.5 C 1235.5,542.833 1235.5,669.167 1235.5,795.5C 1101.5,795.5 967.5,795.5 833.5,795.5C 833.5,669.167 833.5,542.833 833.5,416.5C 967.5,416.5 1101.5,416.5 1235.5,416.5 Z"/></g>
<g><path style="opacity:1" fill="#6a29ec" d="M 1331.5,420.5 C 1331.2,423.522 1330.7,426.522 1330,429.5C 1329.33,498.167 1329.33,566.833 1330,635.5C 1337.95,686.604 1367.12,717.771 1417.5,729C 1493.5,729.667 1569.5,729.667 1645.5,729C 1690.56,721.062 1719.72,695.229 1733,651.5C 1734.72,645.282 1735.72,638.949 1736,632.5C 1736.67,564.833 1736.67,497.167 1736,429.5C 1735.16,425.147 1734.33,420.813 1733.5,416.5C 1758.17,416.5 1782.83,416.5 1807.5,416.5C 1807.5,542.833 1807.5,669.167 1807.5,795.5C 1623.83,795.5 1440.17,795.5 1256.5,795.5C 1256.5,669.167 1256.5,542.833 1256.5,416.5C 1281.5,416.5 1306.5,416.5 1331.5,416.5C 1331.5,417.833 1331.5,419.167 1331.5,420.5 Z"/></g>
<g><path style="opacity:1" fill="#8b57ef" d="M 1733.5,416.5 C 1758.33,415.502 1783.33,415.169 1808.5,415.5C 1808.5,542.167 1808.5,668.833 1808.5,795.5C 1808.17,795.5 1807.83,795.5 1807.5,795.5C 1807.5,669.167 1807.5,542.833 1807.5,416.5C 1782.83,416.5 1758.17,416.5 1733.5,416.5 Z"/></g>
<g><path style="opacity:1" fill="#270c60" d="M 1411.5,464.5 C 1411.33,483.836 1411.5,503.17 1412,522.5C 1412.72,521.956 1413.22,521.289 1413.5,520.5C 1432.17,502.167 1450.83,483.833 1469.5,465.5C 1468.96,467.949 1468.62,470.449 1468.5,473C 1470.97,491.076 1480.97,497.243 1498.5,491.5C 1479.52,511.146 1460.19,530.479 1440.5,549.5C 1459.82,550.333 1479.16,550.833 1498.5,551C 1505.24,552.736 1509.74,556.903 1512,563.5C 1514.8,576.416 1509.96,584.916 1497.5,589C 1460.17,589.667 1422.83,589.667 1385.5,589C 1379.43,586.719 1375.26,582.552 1373,576.5C 1372.33,538.833 1372.33,501.167 1373,463.5C 1375.5,457 1380,452.5 1386.5,450C 1399.22,447.682 1407.55,452.515 1411.5,464.5 Z"/></g>
<g><path style="opacity:1" fill="#e1d4fb" d="M 1333.5,569.5 C 1332.5,583.657 1332.17,597.99 1332.5,612.5C 1331.33,556.001 1331.17,499.335 1332,442.5C 1332.18,484.875 1332.68,527.208 1333.5,569.5 Z"/></g>
<g><path style="opacity:1" fill="#8648ac" d="M 1411.5,464.5 C 1412.17,483.167 1412.83,501.833 1413.5,520.5C 1413.22,521.289 1412.72,521.956 1412,522.5C 1411.5,503.17 1411.33,483.836 1411.5,464.5 Z"/></g>
<g><path style="opacity:1" fill="#bbf2f4" d="M 812.5,816.5 C 702.833,816.5 593.167,816.5 483.5,816.5C 483.5,853.833 483.5,891.167 483.5,928.5C 483.167,928.5 482.833,928.5 482.5,928.5C 482.5,890.833 482.5,853.167 482.5,815.5C 592.668,815.167 702.668,815.501 812.5,816.5 Z"/></g>
<g><path style="opacity:1" fill="#a8deff" d="M 832.5,816.5 C 966.999,815.5 1101.67,815.167 1236.5,815.5C 1236.5,853.167 1236.5,890.833 1236.5,928.5C 1235.5,891.337 1235.17,854.004 1235.5,816.5C 1101.17,816.5 966.833,816.5 832.5,816.5 Z"/></g>
<g><path style="opacity:1" fill="#67e2e6" d="M 812.5,816.5 C 812.5,891.833 812.5,967.167 812.5,1042.5C 804.112,1037.83 795.446,1037.33 786.5,1041C 772.252,1047.58 760.752,1057.41 752,1070.5C 744.966,1081.23 738.966,1092.56 734,1104.5C 736.43,1090.92 738.763,1077.26 741,1063.5C 743.718,1045.22 735.884,1037.05 717.5,1039C 703.479,1043.6 691.979,1051.76 683,1063.5C 673.249,1077 665.582,1091.67 660,1107.5C 661.268,1089.82 664.602,1072.49 670,1055.5C 671.092,1051.2 671.425,1046.87 671,1042.5C 668.131,1039.11 664.464,1037.78 660,1038.5C 645.671,1038.5 637.005,1045.5 634,1059.5C 628.305,1079.75 625.305,1100.41 625,1121.5C 624.34,1123.32 623.173,1124.66 621.5,1125.5C 610.167,1125.5 598.833,1125.5 587.5,1125.5C 587.334,1121.15 587.501,1116.82 588,1112.5C 592.09,1092.05 595.924,1071.55 599.5,1051C 600.1,1046.87 598.766,1043.54 595.5,1041C 586.998,1037.42 578.665,1037.75 570.5,1042C 568.273,1044.56 566.439,1047.4 565,1050.5C 557.468,1074.96 552.968,1099.96 551.5,1125.5C 542.5,1125.5 533.5,1125.5 524.5,1125.5C 531.848,1088.86 518.181,1063.53 483.5,1049.5C 483.5,1020.83 483.5,992.167 483.5,963.5C 491.02,965.518 496.187,970.185 499,977.5C 499.445,987.907 499.112,998.24 498,1008.5C 504.784,1021.14 514.617,1023.98 527.5,1017C 532.043,1012.41 534.876,1006.91 536,1000.5C 542.01,973.578 533.51,952.745 510.5,938C 501.703,933.903 492.703,930.736 483.5,928.5C 483.5,891.167 483.5,853.833 483.5,816.5C 593.167,816.5 702.833,816.5 812.5,816.5 Z"/></g>
<g><path style="opacity:1" fill="#47bafe" d="M 832.5,816.5 C 966.833,816.5 1101.17,816.5 1235.5,816.5C 1235.17,854.004 1235.5,891.337 1236.5,928.5C 1230.33,931.528 1226.5,936.528 1225,943.5C 1214.96,995.521 1212.96,1047.85 1219,1100.5C 1220.77,1108.87 1222.61,1117.2 1224.5,1125.5C 1222.17,1125.5 1219.83,1125.5 1217.5,1125.5C 1218.48,1119.92 1217.14,1115.08 1213.5,1111C 1209.88,1110.03 1206.55,1110.53 1203.5,1112.5C 1199.48,1117.19 1195.15,1121.52 1190.5,1125.5C 1174.17,1125.5 1157.83,1125.5 1141.5,1125.5C 1157.75,1119.08 1169.25,1107.75 1176,1091.5C 1180.36,1078.18 1179.03,1065.51 1172,1053.5C 1163.92,1043.54 1153.42,1038.54 1140.5,1038.5C 1107.31,1042.18 1086.15,1060.18 1077,1092.5C 1074.42,1103.43 1073.92,1114.43 1075.5,1125.5C 1058.5,1125.5 1041.5,1125.5 1024.5,1125.5C 1023.29,1123.57 1023.46,1121.57 1025,1119.5C 1056.93,1077.62 1079.27,1030.96 1092,979.5C 1094.36,964.584 1095.03,949.584 1094,934.5C 1093.14,922.946 1088.64,913.112 1080.5,905C 1069.74,898.093 1058.74,897.759 1047.5,904C 1034.84,912.497 1025.34,923.664 1019,937.5C 993.671,993.973 982.837,1053.14 986.5,1115C 986.692,1119.78 984.692,1123.28 980.5,1125.5C 970.167,1125.5 959.833,1125.5 949.5,1125.5C 958.669,1105.82 960.502,1085.49 955,1064.5C 947.582,1044.75 933.415,1036.25 912.5,1039C 900.72,1042.89 891.054,1049.72 883.5,1059.5C 882.92,1053.09 882.087,1046.75 881,1040.5C 877.443,1038.05 873.443,1037.05 869,1037.5C 859.755,1036.96 852.755,1040.62 848,1048.5C 847.667,1070.83 847.333,1093.17 847,1115.5C 845.021,1119.3 842.521,1122.63 839.5,1125.5C 837.167,1125.5 834.833,1125.5 832.5,1125.5C 832.5,1022.5 832.5,919.5 832.5,816.5 Z"/></g>
<g><path style="opacity:1" fill="#9eaeff" d="M 1808.5,816.5 C 1624.5,816.5 1440.5,816.5 1256.5,816.5C 1256.83,853.67 1256.5,890.67 1255.5,927.5C 1255.5,890.167 1255.5,852.833 1255.5,815.5C 1440,815.167 1624.33,815.5 1808.5,816.5 Z"/></g>
<g><path style="opacity:1" fill="#5e7bfe" d="M 1808.5,816.5 C 1807.84,911.506 1808.5,1006.17 1810.5,1100.5C 1805.23,1102.89 1801.73,1101.22 1800,1095.5C 1799.33,1092.17 1799.33,1088.83 1800,1085.5C 1801.82,1076.22 1803.32,1066.88 1804.5,1057.5C 1804.53,1047.7 1799.86,1041.53 1790.5,1039C 1778.05,1038.26 1767.05,1041.93 1757.5,1050C 1740.38,1065.72 1727.88,1084.56 1720,1106.5C 1719.4,1101.12 1719.74,1095.79 1721,1090.5C 1723.68,1077.77 1726.68,1065.1 1730,1052.5C 1733.28,1041.95 1729.44,1037.28 1718.5,1038.5C 1708.29,1038.35 1700.79,1042.68 1696,1051.5C 1691.74,1063.52 1688.91,1075.85 1687.5,1088.5C 1679.6,1090.15 1671.6,1091.15 1663.5,1091.5C 1662.26,1075.85 1656.26,1062.35 1645.5,1051C 1628.08,1037.64 1609.08,1034.97 1588.5,1043C 1583.74,1045.13 1579.24,1047.63 1575,1050.5C 1573.5,1050 1572,1049.5 1570.5,1049C 1557.44,1048.87 1544.44,1048.04 1531.5,1046.5C 1534.23,1037.14 1537.06,1027.81 1540,1018.5C 1544.6,999.075 1546.27,979.408 1545,959.5C 1537.89,928.188 1518.73,916.688 1487.5,925C 1471.54,931.97 1460.7,943.803 1455,960.5C 1448.86,982.267 1449.2,1003.93 1456,1025.5C 1462.16,1041.32 1472.32,1053.82 1486.5,1063C 1477.75,1083.06 1466.58,1101.56 1453,1118.5C 1450.63,1121.04 1448.13,1123.37 1445.5,1125.5C 1431.83,1125.5 1418.17,1125.5 1404.5,1125.5C 1401.57,1119.47 1399.41,1113.14 1398,1106.5C 1391.95,1051.57 1393.78,996.899 1403.5,942.5C 1402.43,931.517 1396.26,926.183 1385,926.5C 1375.01,926.489 1367.68,930.822 1363,939.5C 1357.04,967.893 1350.7,996.226 1344,1024.5C 1336.51,1051.81 1326.51,1078.14 1314,1103.5C 1309.55,1111.43 1304.38,1118.76 1298.5,1125.5C 1288.32,1125.17 1278.32,1125.51 1268.5,1126.5C 1261.91,1112.71 1258.41,1098.04 1258,1082.5C 1257.13,1058.15 1257.46,1033.81 1259,1009.5C 1260.85,988.061 1263.35,966.728 1266.5,945.5C 1267.37,936.541 1263.7,930.541 1255.5,927.5C 1256.5,890.67 1256.83,853.67 1256.5,816.5C 1440.5,816.5 1624.5,816.5 1808.5,816.5 Z"/></g>
<g><path style="opacity:1" fill="#270d60" d="M 1024.5,1125.5 C 1027.19,1142.52 1036.86,1148.36 1053.5,1143C 1061.78,1139.38 1068.95,1134.22 1075,1127.5C 1075.46,1126.91 1075.63,1126.24 1075.5,1125.5C 1073.92,1114.43 1074.42,1103.43 1077,1092.5C 1086.15,1060.18 1107.31,1042.18 1140.5,1038.5C 1153.42,1038.54 1163.92,1043.54 1172,1053.5C 1179.03,1065.51 1180.36,1078.18 1176,1091.5C 1169.25,1107.75 1157.75,1119.08 1141.5,1125.5C 1133.68,1128.49 1125.68,1130.99 1117.5,1133C 1116.57,1133.39 1115.91,1134.05 1115.5,1135C 1118.62,1140.63 1123.29,1144.13 1129.5,1145.5C 1133.2,1147.06 1137.2,1147.72 1141.5,1147.5C 1146.11,1147.68 1150.44,1147.02 1154.5,1145.5C 1168.23,1141.73 1180.23,1135.06 1190.5,1125.5C 1195.15,1121.52 1199.48,1117.19 1203.5,1112.5C 1206.55,1110.53 1209.88,1110.03 1213.5,1111C 1217.14,1115.08 1218.48,1119.92 1217.5,1125.5C 1217.3,1129.62 1216.47,1133.62 1215,1137.5C 1212.95,1140.05 1211.11,1142.71 1209.5,1145.5C 1185.72,1169.04 1157.06,1179.21 1123.5,1176C 1107.91,1173.46 1095.41,1165.96 1086,1153.5C 1070.08,1171.25 1050.25,1178.75 1026.5,1176C 1011.68,1171.85 1001.18,1162.69 995,1148.5C 984.779,1161.7 971.612,1170.53 955.5,1175C 940.289,1179.65 927.123,1176.49 916,1165.5C 905.279,1172.64 893.445,1176.31 880.5,1176.5C 879.475,1209.7 873.641,1242.04 863,1273.5C 859.529,1283.12 854.529,1291.78 848,1299.5C 843.657,1303.42 838.823,1306.42 833.5,1308.5C 833.167,1308.5 832.833,1308.5 832.5,1308.5C 825.768,1309.97 819.101,1309.64 812.5,1307.5C 801.34,1301.21 795.174,1291.55 794,1278.5C 792.609,1242.73 799.775,1208.73 815.5,1176.5C 783.975,1182.3 768.975,1169.3 770.5,1137.5C 771.162,1133.53 771.495,1129.53 771.5,1125.5C 775.141,1112.17 776.974,1098.51 777,1084.5C 776.275,1083.94 775.442,1083.61 774.5,1083.5C 767.788,1087.71 762.622,1093.38 759,1100.5C 754.607,1108.62 750.774,1116.95 747.5,1125.5C 744.899,1131.3 742.899,1137.3 741.5,1143.5C 739.023,1152.16 736.19,1160.83 733,1169.5C 727.171,1175.75 720.005,1177.92 711.5,1176C 704.733,1171.65 700.566,1165.48 699,1157.5C 698.5,1149.84 698.334,1142.17 698.5,1134.5C 698.704,1131.48 699.037,1128.48 699.5,1125.5C 700.902,1115.05 701.902,1104.55 702.5,1094C 702.885,1081.3 699.052,1080.13 691,1090.5C 683.877,1101.41 678.377,1113.08 674.5,1125.5C 671.924,1131.23 669.924,1137.23 668.5,1143.5C 665.995,1152.15 663.161,1160.82 660,1169.5C 653.47,1176.5 645.636,1178.33 636.5,1175C 631.768,1170.37 628.435,1164.87 626.5,1158.5C 615.619,1169.11 602.619,1175.11 587.5,1176.5C 575.908,1177.12 566.742,1172.79 560,1163.5C 556.777,1156.98 554.277,1150.32 552.5,1143.5C 552.407,1137.48 552.074,1131.48 551.5,1125.5C 552.968,1099.96 557.468,1074.96 565,1050.5C 566.439,1047.4 568.273,1044.56 570.5,1042C 578.665,1037.75 586.998,1037.42 595.5,1041C 598.766,1043.54 600.1,1046.87 599.5,1051C 595.924,1071.55 592.09,1092.05 588,1112.5C 587.501,1116.82 587.334,1121.15 587.5,1125.5C 586.714,1131.9 588.047,1137.73 591.5,1143C 597.355,1145.17 602.688,1144.17 607.5,1140C 612.37,1135.3 617.037,1130.46 621.5,1125.5C 623.173,1124.66 624.34,1123.32 625,1121.5C 625.305,1100.41 628.305,1079.75 634,1059.5C 637.005,1045.5 645.671,1038.5 660,1038.5C 664.464,1037.78 668.131,1039.11 671,1042.5C 671.425,1046.87 671.092,1051.2 670,1055.5C 664.602,1072.49 661.268,1089.82 660,1107.5C 665.582,1091.67 673.249,1077 683,1063.5C 691.979,1051.76 703.479,1043.6 717.5,1039C 735.884,1037.05 743.718,1045.22 741,1063.5C 738.763,1077.26 736.43,1090.92 734,1104.5C 738.966,1092.56 744.966,1081.23 752,1070.5C 760.752,1057.41 772.252,1047.58 786.5,1041C 795.446,1037.33 804.112,1037.83 812.5,1042.5C 816.637,1047.7 818.303,1053.7 817.5,1060.5C 816.052,1072.52 814.385,1084.52 812.5,1096.5C 809.498,1105.84 807.498,1115.5 806.5,1125.5C 803.418,1143.28 809.751,1148.11 825.5,1140C 831.043,1135.96 835.709,1131.13 839.5,1125.5C 842.521,1122.63 845.021,1119.3 847,1115.5C 847.333,1093.17 847.667,1070.83 848,1048.5C 852.755,1040.62 859.755,1036.96 869,1037.5C 873.443,1037.05 877.443,1038.05 881,1040.5C 882.087,1046.75 882.92,1053.09 883.5,1059.5C 891.054,1049.72 900.72,1042.89 912.5,1039C 933.415,1036.25 947.582,1044.75 955,1064.5C 960.502,1085.49 958.669,1105.82 949.5,1125.5C 946.935,1131.63 943.601,1137.3 939.5,1142.5C 949.054,1145.9 958.054,1144.73 966.5,1139C 971.669,1135 976.336,1130.5 980.5,1125.5C 984.692,1123.28 986.692,1119.78 986.5,1115C 982.837,1053.14 993.671,993.973 1019,937.5C 1025.34,923.664 1034.84,912.497 1047.5,904C 1058.74,897.759 1069.74,898.093 1080.5,905C 1088.64,913.112 1093.14,922.946 1094,934.5C 1095.03,949.584 1094.36,964.584 1092,979.5C 1079.27,1030.96 1056.93,1077.62 1025,1119.5C 1023.46,1121.57 1023.29,1123.57 1024.5,1125.5 Z"/></g>
<g><path style="opacity:1" fill="#270d60" d="M 1770.5,1125.5 C 1764.46,1114.26 1762.79,1102.26 1765.5,1089.5C 1766.14,1084.67 1764.14,1082.84 1759.5,1084C 1747.97,1095.88 1739.64,1109.71 1734.5,1125.5C 1731.38,1131.87 1729.04,1138.54 1727.5,1145.5C 1727.5,1145.83 1727.5,1146.17 1727.5,1146.5C 1724.98,1154.58 1722.14,1162.58 1719,1170.5C 1713.25,1175.98 1706.42,1177.81 1698.5,1176C 1695.9,1175.12 1693.73,1173.62 1692,1171.5C 1687.53,1162.91 1685.03,1153.91 1684.5,1144.5C 1684.5,1143.17 1684.5,1141.83 1684.5,1140.5C 1684.5,1135.5 1684.5,1130.5 1684.5,1125.5C 1684.8,1123.4 1684.47,1121.4 1683.5,1119.5C 1676.28,1121.21 1668.94,1122.38 1661.5,1123C 1660.75,1123.67 1660.41,1124.5 1660.5,1125.5C 1660.5,1125.83 1660.5,1126.17 1660.5,1126.5C 1658.73,1132.71 1656.39,1138.71 1653.5,1144.5C 1633.74,1176.14 1606.74,1184.31 1572.5,1169C 1563.55,1162.55 1556.88,1154.38 1552.5,1144.5C 1550.36,1138.27 1548.69,1131.93 1547.5,1125.5C 1547.33,1116.16 1547.5,1106.83 1548,1097.5C 1549.22,1091.3 1551.05,1085.3 1553.5,1079.5C 1542.24,1078.85 1531.07,1077.51 1520,1075.5C 1511.09,1093 1500.92,1109.67 1489.5,1125.5C 1483.86,1132.14 1478.2,1138.81 1472.5,1145.5C 1459.65,1159.18 1444.32,1169.01 1426.5,1175C 1399.42,1180.46 1381.09,1170.3 1371.5,1144.5C 1369.49,1138.15 1367.49,1131.82 1365.5,1125.5C 1362.06,1109.36 1359.89,1093.03 1359,1076.5C 1353.26,1093.31 1346.42,1109.65 1338.5,1125.5C 1334.17,1132.16 1329.84,1138.83 1325.5,1145.5C 1316.41,1157.43 1305.07,1166.59 1291.5,1173C 1279.83,1177.39 1268.17,1177.56 1256.5,1173.5C 1256.17,1173.5 1255.83,1173.5 1255.5,1173.5C 1248.21,1169.21 1242.21,1163.55 1237.5,1156.5C 1237.17,1155.83 1236.83,1155.17 1236.5,1154.5C 1234.22,1150.93 1232.22,1147.26 1230.5,1143.5C 1228.3,1137.56 1226.3,1131.56 1224.5,1125.5C 1222.61,1117.2 1220.77,1108.87 1219,1100.5C 1212.96,1047.85 1214.96,995.521 1225,943.5C 1226.5,936.528 1230.33,931.528 1236.5,928.5C 1242.71,926.3 1249.04,925.967 1255.5,927.5C 1263.7,930.541 1267.37,936.541 1266.5,945.5C 1263.35,966.728 1260.85,988.061 1259,1009.5C 1257.46,1033.81 1257.13,1058.15 1258,1082.5C 1258.41,1098.04 1261.91,1112.71 1268.5,1126.5C 1273.13,1136.64 1280.46,1139.14 1290.5,1134C 1293.48,1131.37 1296.15,1128.53 1298.5,1125.5C 1304.38,1118.76 1309.55,1111.43 1314,1103.5C 1326.51,1078.14 1336.51,1051.81 1344,1024.5C 1350.7,996.226 1357.04,967.893 1363,939.5C 1367.68,930.822 1375.01,926.489 1385,926.5C 1396.26,926.183 1402.43,931.517 1403.5,942.5C 1393.78,996.899 1391.95,1051.57 1398,1106.5C 1399.41,1113.14 1401.57,1119.47 1404.5,1125.5C 1411.88,1136.81 1421.88,1139.65 1434.5,1134C 1438.64,1131.69 1442.3,1128.85 1445.5,1125.5C 1448.13,1123.37 1450.63,1121.04 1453,1118.5C 1466.58,1101.56 1477.75,1083.06 1486.5,1063C 1472.32,1053.82 1462.16,1041.32 1456,1025.5C 1449.2,1003.93 1448.86,982.267 1455,960.5C 1460.7,943.803 1471.54,931.97 1487.5,925C 1518.73,916.688 1537.89,928.188 1545,959.5C 1546.27,979.408 1544.6,999.075 1540,1018.5C 1537.06,1027.81 1534.23,1037.14 1531.5,1046.5C 1544.44,1048.04 1557.44,1048.87 1570.5,1049C 1572,1049.5 1573.5,1050 1575,1050.5C 1579.24,1047.63 1583.74,1045.13 1588.5,1043C 1609.08,1034.97 1628.08,1037.64 1645.5,1051C 1656.26,1062.35 1662.26,1075.85 1663.5,1091.5C 1671.6,1091.15 1679.6,1090.15 1687.5,1088.5C 1688.91,1075.85 1691.74,1063.52 1696,1051.5C 1700.79,1042.68 1708.29,1038.35 1718.5,1038.5C 1729.44,1037.28 1733.28,1041.95 1730,1052.5C 1726.68,1065.1 1723.68,1077.77 1721,1090.5C 1719.74,1095.79 1719.4,1101.12 1720,1106.5C 1727.88,1084.56 1740.38,1065.72 1757.5,1050C 1767.05,1041.93 1778.05,1038.26 1790.5,1039C 1799.86,1041.53 1804.53,1047.7 1804.5,1057.5C 1803.32,1066.88 1801.82,1076.22 1800,1085.5C 1799.33,1088.83 1799.33,1092.17 1800,1095.5C 1801.73,1101.22 1805.23,1102.89 1810.5,1100.5C 1813.42,1099.7 1816.09,1098.37 1818.5,1096.5C 1820.59,1055.1 1827.09,1014.44 1838,974.5C 1844.55,952.12 1854.89,931.786 1869,913.5C 1881.01,900.836 1895.17,897.336 1911.5,903C 1924.23,912.804 1929.9,925.804 1928.5,942C 1928.37,951.626 1927.2,961.126 1925,970.5C 1915.31,998.551 1900.98,1023.88 1882,1046.5C 1873,1056.83 1864,1067.17 1855,1077.5C 1854.33,1087.5 1854.33,1097.5 1855,1107.5C 1862.41,1085.45 1874.58,1066.62 1891.5,1051C 1901,1042.74 1912,1038.74 1924.5,1039C 1940.19,1041.69 1949.69,1050.86 1953,1066.5C 1954.58,1086.78 1947.74,1103.61 1932.5,1117C 1927.92,1120.54 1923.09,1123.71 1918,1126.5C 1918.18,1134.38 1922.02,1139.88 1929.5,1143C 1940.45,1146.02 1950.12,1143.68 1958.5,1136C 1966.53,1128.57 1973.87,1120.57 1980.5,1112C 1986.66,1108.96 1991.16,1110.46 1994,1116.5C 1995.49,1125 1994.16,1133 1990,1140.5C 1981.46,1150.7 1971.96,1159.87 1961.5,1168C 1940.5,1179.27 1919.5,1179.27 1898.5,1168C 1884.64,1156.77 1878.81,1142.27 1881,1124.5C 1884.74,1116.77 1890.91,1111.94 1899.5,1110C 1912.24,1103.68 1917.41,1093.51 1915,1079.5C 1912.29,1075.97 1908.79,1074.8 1904.5,1076C 1895.33,1081.17 1888.17,1088.33 1883,1097.5C 1870.99,1118.52 1862.33,1140.86 1857,1164.5C 1852.57,1174.92 1844.74,1178.76 1833.5,1176C 1830.9,1175.12 1828.73,1173.62 1827,1171.5C 1824.55,1167.47 1822.88,1163.14 1822,1158.5C 1820.42,1148.55 1819.25,1138.55 1818.5,1128.5C 1801.71,1137.35 1785.71,1136.35 1770.5,1125.5 Z"/></g>
<g><path style="opacity:1" fill="#280d60" d="M 482.5,928.5 C 482.833,928.5 483.167,928.5 483.5,928.5C 492.703,930.736 501.703,933.903 510.5,938C 533.51,952.745 542.01,973.578 536,1000.5C 534.876,1006.91 532.043,1012.41 527.5,1017C 514.617,1023.98 504.784,1021.14 498,1008.5C 499.112,998.24 499.445,987.907 499,977.5C 496.187,970.185 491.02,965.518 483.5,963.5C 480.79,961.892 477.79,960.725 474.5,960C 459.325,957.468 444.325,958.135 429.5,962C 407.172,971.313 400.672,987.146 410,1009.5C 413.167,1014 417,1017.83 421.5,1021C 441.781,1031.37 462.448,1040.87 483.5,1049.5C 518.181,1063.53 531.848,1088.86 524.5,1125.5C 522.034,1132.43 519.034,1139.1 515.5,1145.5C 506.183,1155.82 495.183,1163.82 482.5,1169.5C 458.722,1177.01 434.388,1179.51 409.5,1177C 387.629,1174.98 369.129,1166.15 354,1150.5C 343.44,1132.64 341.773,1113.97 349,1094.5C 355.204,1084.99 363.704,1082.16 374.5,1086C 380.959,1088.46 384.293,1093.12 384.5,1100C 383.646,1105.98 382.979,1111.98 382.5,1118C 382.266,1125.87 385.266,1132.2 391.5,1137C 404.007,1143.6 417.34,1146.43 431.5,1145.5C 446.432,1146.43 460.432,1143.27 473.5,1136C 478.53,1133.14 481.864,1128.98 483.5,1123.5C 487.439,1115.81 487.439,1108.14 483.5,1100.5C 480.451,1094.61 476.118,1089.78 470.5,1086C 453.163,1077.56 435.497,1069.89 417.5,1063C 400.865,1056.95 387.032,1047.11 376,1033.5C 366.838,1019.17 363.504,1003.5 366,986.5C 372.731,959.764 389.231,941.931 415.5,933C 437.467,926.123 459.8,924.623 482.5,928.5 Z"/></g>
<g><path style="opacity:1" fill="#46b8fc" d="M 1056.5,928.5 C 1059.32,928.081 1061.49,929.081 1063,931.5C 1064.75,934.246 1065.75,937.246 1066,940.5C 1066.64,972.59 1060.31,1003.26 1047,1032.5C 1039.72,1049.07 1031.38,1065.07 1022,1080.5C 1022.59,1036.8 1029.59,994.134 1043,952.5C 1045.71,943.403 1050.21,935.403 1056.5,928.5 Z"/></g>
<g><path style="opacity:1" fill="#faf9fb" d="M 1890.5,928.5 C 1896.15,929.315 1899.31,932.649 1900,938.5C 1901.22,949.716 1900.22,960.716 1897,971.5C 1888.73,997.041 1876.07,1020.04 1859,1040.5C 1862.26,1008.03 1869.26,976.367 1880,945.5C 1882.51,939.135 1886.01,933.468 1890.5,928.5 Z"/></g>
<g><path style="opacity:1" fill="#5e7afd" d="M 1493.5,955.5 C 1502.11,954.27 1507.27,957.937 1509,966.5C 1511.26,989.701 1507.42,1011.7 1497.5,1032.5C 1487.24,1023.98 1481.74,1012.98 1481,999.5C 1480.19,990.454 1480.53,981.454 1482,972.5C 1483.87,965.413 1487.7,959.746 1493.5,955.5 Z"/></g>
<g><path style="opacity:1" fill="#fdfdfd" d="M 483.5,963.5 C 483.5,992.167 483.5,1020.83 483.5,1049.5C 462.448,1040.87 441.781,1031.37 421.5,1021C 417,1017.83 413.167,1014 410,1009.5C 400.672,987.146 407.172,971.313 429.5,962C 444.325,958.135 459.325,957.468 474.5,960C 477.79,960.725 480.79,961.892 483.5,963.5 Z"/></g>
<g><path style="opacity:1" fill="#270e61" d="M 586.5,973.5 C 613.318,971.786 622.485,983.453 614,1008.5C 603.401,1019.27 590.901,1022.11 576.5,1017C 564.923,1008.75 562.423,998.253 569,985.5C 571.5,983 574,980.5 576.5,978C 579.946,976.491 583.28,974.991 586.5,973.5 Z"/></g>
<g><path style="opacity:1" fill="#46b7fb" d="M 1130.5,1067.5 C 1146.04,1067.55 1150.87,1074.88 1145,1089.5C 1139.58,1097.91 1132.08,1103.75 1122.5,1107C 1118.57,1108.48 1114.57,1109.64 1110.5,1110.5C 1108.87,1092.09 1115.54,1077.76 1130.5,1067.5 Z"/></g>
<g><path style="opacity:1" fill="#46b9fd" d="M 910.5,1125.5 C 901.5,1125.5 892.5,1125.5 883.5,1125.5C 883.333,1113.16 883.5,1100.83 884,1088.5C 888.089,1082.41 892.922,1076.91 898.5,1072C 908.156,1064.81 915.656,1066.64 921,1077.5C 923.148,1094.85 919.648,1110.85 910.5,1125.5 Z"/></g>
<g><path style="opacity:1" fill="#5e7afd" d="M 1627.5,1125.5 C 1613.17,1125.5 1598.83,1125.5 1584.5,1125.5C 1581.54,1109.7 1583.71,1094.7 1591,1080.5C 1596.02,1073.24 1602.85,1069.58 1611.5,1069.5C 1609.2,1088.12 1615.03,1103.45 1629,1115.5C 1629.69,1119.03 1629.19,1122.36 1627.5,1125.5 Z"/></g>
<g><path style="opacity:1" fill="#5e7afd" d="M 1547.5,1125.5 C 1528.17,1125.5 1508.83,1125.5 1489.5,1125.5C 1500.92,1109.67 1511.09,1093 1520,1075.5C 1531.07,1077.51 1542.24,1078.85 1553.5,1079.5C 1551.05,1085.3 1549.22,1091.3 1548,1097.5C 1547.5,1106.83 1547.33,1116.16 1547.5,1125.5 Z"/></g>
<g><path style="opacity:1" fill="#5d79fa" d="M 1365.5,1125.5 C 1356.5,1125.5 1347.5,1125.5 1338.5,1125.5C 1346.42,1109.65 1353.26,1093.31 1359,1076.5C 1359.89,1093.03 1362.06,1109.36 1365.5,1125.5 Z"/></g>
<g><path style="opacity:1" fill="#67dfe4" d="M 699.5,1125.5 C 691.167,1125.5 682.833,1125.5 674.5,1125.5C 678.377,1113.08 683.877,1101.41 691,1090.5C 699.052,1080.13 702.885,1081.3 702.5,1094C 701.902,1104.55 700.902,1115.05 699.5,1125.5 Z"/></g>
<g><path style="opacity:1" fill="#67dfe5" d="M 771.5,1125.5 C 763.5,1125.5 755.5,1125.5 747.5,1125.5C 750.774,1116.95 754.607,1108.62 759,1100.5C 762.622,1093.38 767.788,1087.71 774.5,1083.5C 775.442,1083.61 776.275,1083.94 777,1084.5C 776.974,1098.51 775.141,1112.17 771.5,1125.5 Z"/></g>
<g><path style="opacity:1" fill="#5e7afc" d="M 1770.5,1125.5 C 1758.5,1125.5 1746.5,1125.5 1734.5,1125.5C 1739.64,1109.71 1747.97,1095.88 1759.5,1084C 1764.14,1082.84 1766.14,1084.67 1765.5,1089.5C 1762.79,1102.26 1764.46,1114.26 1770.5,1125.5 Z"/></g>
<g><path style="opacity:1" fill="#64d6df" d="M 812.5,1096.5 C 812.5,1106.17 812.5,1115.83 812.5,1125.5C 810.5,1125.5 808.5,1125.5 806.5,1125.5C 807.498,1115.5 809.498,1105.84 812.5,1096.5 Z"/></g>
<g><path style="opacity:1" fill="#63d2dc" d="M 483.5,1100.5 C 487.439,1108.14 487.439,1115.81 483.5,1123.5C 483.5,1115.83 483.5,1108.17 483.5,1100.5 Z"/></g>
<g><path style="opacity:1" fill="#5c76f7" d="M 1684.5,1125.5 C 1676.5,1125.5 1668.5,1125.5 1660.5,1125.5C 1660.41,1124.5 1660.75,1123.67 1661.5,1123C 1668.94,1122.38 1676.28,1121.21 1683.5,1119.5C 1684.47,1121.4 1684.8,1123.4 1684.5,1125.5 Z"/></g>
<g><path style="opacity:1" fill="#d1d7fa" d="M 1584.5,1125.5 C 1598.83,1125.5 1613.17,1125.5 1627.5,1125.5C 1627.67,1126.49 1627.34,1127.16 1626.5,1127.5C 1612.83,1126.17 1599.17,1126.17 1585.5,1127.5C 1584.66,1127.16 1584.33,1126.49 1584.5,1125.5 Z"/></g>
<g><path style="opacity:1" fill="#cbceee" d="M 1660.5,1126.5 C 1660.5,1126.17 1660.5,1125.83 1660.5,1125.5C 1668.5,1125.5 1676.5,1125.5 1684.5,1125.5C 1684.5,1130.5 1684.5,1135.5 1684.5,1140.5C 1683.51,1136.03 1683.18,1131.36 1683.5,1126.5C 1675.83,1126.5 1668.17,1126.5 1660.5,1126.5 Z"/></g>
<g><path style="opacity:1" fill="#fbfbfc" d="M 524.5,1125.5 C 533.5,1125.5 542.5,1125.5 551.5,1125.5C 552.074,1131.48 552.407,1137.48 552.5,1143.5C 540.545,1145.48 528.212,1146.15 515.5,1145.5C 519.034,1139.1 522.034,1132.43 524.5,1125.5 Z"/></g>
<g><path style="opacity:1" fill="#fafcfd" d="M 587.5,1125.5 C 598.833,1125.5 610.167,1125.5 621.5,1125.5C 617.037,1130.46 612.37,1135.3 607.5,1140C 602.688,1144.17 597.355,1145.17 591.5,1143C 588.047,1137.73 586.714,1131.9 587.5,1125.5 Z"/></g>
<g><path style="opacity:1" fill="#fbfcfd" d="M 674.5,1125.5 C 682.833,1125.5 691.167,1125.5 699.5,1125.5C 699.037,1128.48 698.704,1131.48 698.5,1134.5C 697.518,1137.96 697.185,1141.63 697.5,1145.5C 687.442,1146.14 677.775,1145.47 668.5,1143.5C 669.924,1137.23 671.924,1131.23 674.5,1125.5 Z"/></g>
<g><path style="opacity:1" fill="#fbfbfd" d="M 747.5,1125.5 C 755.5,1125.5 763.5,1125.5 771.5,1125.5C 771.495,1129.53 771.162,1133.53 770.5,1137.5C 769.527,1139.95 769.194,1142.61 769.5,1145.5C 759.773,1146.14 750.44,1145.47 741.5,1143.5C 742.899,1137.3 744.899,1131.3 747.5,1125.5 Z"/></g>
<g><path style="opacity:1" fill="#f9fbfd" d="M 883.5,1125.5 C 892.5,1125.5 901.5,1125.5 910.5,1125.5C 906.107,1134.89 899.107,1141.56 889.5,1145.5C 887.5,1145.5 885.5,1145.5 883.5,1145.5C 883.5,1138.83 883.5,1132.17 883.5,1125.5 Z"/></g>
<g><path style="opacity:1" fill="#f8f9fb" d="M 949.5,1125.5 C 959.833,1125.5 970.167,1125.5 980.5,1125.5C 976.336,1130.5 971.669,1135 966.5,1139C 958.054,1144.73 949.054,1145.9 939.5,1142.5C 943.601,1137.3 946.935,1131.63 949.5,1125.5 Z"/></g>
<g><path style="opacity:1" fill="#f9fafc" d="M 1024.5,1125.5 C 1041.5,1125.5 1058.5,1125.5 1075.5,1125.5C 1075.63,1126.24 1075.46,1126.91 1075,1127.5C 1068.95,1134.22 1061.78,1139.38 1053.5,1143C 1036.86,1148.36 1027.19,1142.52 1024.5,1125.5 Z"/></g>
<g><path style="opacity:1" fill="#fafbfd" d="M 1141.5,1125.5 C 1157.83,1125.5 1174.17,1125.5 1190.5,1125.5C 1180.23,1135.06 1168.23,1141.73 1154.5,1145.5C 1146.17,1145.5 1137.83,1145.5 1129.5,1145.5C 1123.29,1144.13 1118.62,1140.63 1115.5,1135C 1115.91,1134.05 1116.57,1133.39 1117.5,1133C 1125.68,1130.99 1133.68,1128.49 1141.5,1125.5 Z"/></g>
<g><path style="opacity:1" fill="#f7f7fa" d="M 1217.5,1125.5 C 1219.83,1125.5 1222.17,1125.5 1224.5,1125.5C 1226.3,1131.56 1228.3,1137.56 1230.5,1143.5C 1223.91,1145.46 1216.91,1146.13 1209.5,1145.5C 1211.11,1142.71 1212.95,1140.05 1215,1137.5C 1216.47,1133.62 1217.3,1129.62 1217.5,1125.5 Z"/></g>
<g><path style="opacity:1" fill="#f7f7fc" d="M 1298.5,1125.5 C 1296.15,1128.53 1293.48,1131.37 1290.5,1134C 1280.46,1139.14 1273.13,1136.64 1268.5,1126.5C 1278.32,1125.51 1288.32,1125.17 1298.5,1125.5 Z"/></g>
<g><path style="opacity:1" fill="#fbfbfd" d="M 1338.5,1125.5 C 1347.5,1125.5 1356.5,1125.5 1365.5,1125.5C 1367.49,1131.82 1369.49,1138.15 1371.5,1144.5C 1356.34,1145.5 1341.01,1145.83 1325.5,1145.5C 1329.84,1138.83 1334.17,1132.16 1338.5,1125.5 Z"/></g>
<g><path style="opacity:1" fill="#f7f7fc" d="M 1404.5,1125.5 C 1418.17,1125.5 1431.83,1125.5 1445.5,1125.5C 1442.3,1128.85 1438.64,1131.69 1434.5,1134C 1421.88,1139.65 1411.88,1136.81 1404.5,1125.5 Z"/></g>
<g><path style="opacity:1" fill="#fcfcfe" d="M 1489.5,1125.5 C 1508.83,1125.5 1528.17,1125.5 1547.5,1125.5C 1548.69,1131.93 1550.36,1138.27 1552.5,1144.5C 1526.01,1145.5 1499.34,1145.83 1472.5,1145.5C 1478.2,1138.81 1483.86,1132.14 1489.5,1125.5 Z"/></g>
<g><path style="opacity:1" fill="#fcfcfd" d="M 1626.5,1127.5 C 1621.23,1142.8 1610.9,1147.97 1595.5,1143C 1590.01,1139.19 1586.68,1134.02 1585.5,1127.5C 1599.17,1126.17 1612.83,1126.17 1626.5,1127.5 Z"/></g>
<g><path style="opacity:1" fill="#fdfdfe" d="M 1660.5,1126.5 C 1668.17,1126.5 1675.83,1126.5 1683.5,1126.5C 1683.18,1131.36 1683.51,1136.03 1684.5,1140.5C 1684.5,1141.83 1684.5,1143.17 1684.5,1144.5C 1674.17,1145.83 1663.83,1145.83 1653.5,1144.5C 1656.39,1138.71 1658.73,1132.71 1660.5,1126.5 Z"/></g>
<g><path style="opacity:1" fill="#a29ab5" d="M 883.5,1125.5 C 883.5,1132.17 883.5,1138.83 883.5,1145.5C 885.5,1145.5 887.5,1145.5 889.5,1145.5C 887.78,1146.86 885.78,1147.86 883.5,1148.5C 882.18,1140.68 882.18,1133.01 883.5,1125.5 Z"/></g>
<g><path style="opacity:1" fill="#a5a1ad" d="M 1129.5,1145.5 C 1137.83,1145.5 1146.17,1145.5 1154.5,1145.5C 1150.44,1147.02 1146.11,1147.68 1141.5,1147.5C 1137.2,1147.72 1133.2,1147.06 1129.5,1145.5 Z"/></g>
<g><path style="opacity:1" fill="#dadada" d="M 698.5,1134.5 C 698.334,1142.17 698.5,1149.84 699,1157.5C 700.566,1165.48 704.733,1171.65 711.5,1176C 720.005,1177.92 727.171,1175.75 733,1169.5C 736.19,1160.83 739.023,1152.16 741.5,1143.5C 750.44,1145.47 759.773,1146.14 769.5,1145.5C 769.194,1142.61 769.527,1139.95 770.5,1137.5C 768.975,1169.3 783.975,1182.3 815.5,1176.5C 799.775,1208.73 792.609,1242.73 794,1278.5C 795.174,1291.55 801.34,1301.21 812.5,1307.5C 812.5,1350.5 812.5,1393.5 812.5,1436.5C 702.833,1436.5 593.167,1436.5 483.5,1436.5C 483.833,1347.33 483.499,1258.33 482.5,1169.5C 495.183,1163.82 506.183,1155.82 515.5,1145.5C 528.212,1146.15 540.545,1145.48 552.5,1143.5C 554.277,1150.32 556.777,1156.98 560,1163.5C 566.742,1172.79 575.908,1177.12 587.5,1176.5C 602.619,1175.11 615.619,1169.11 626.5,1158.5C 628.435,1164.87 631.768,1170.37 636.5,1175C 645.636,1178.33 653.47,1176.5 660,1169.5C 663.161,1160.82 665.995,1152.15 668.5,1143.5C 677.775,1145.47 687.442,1146.14 697.5,1145.5C 697.185,1141.63 697.518,1137.96 698.5,1134.5 Z"/></g>
<g><path style="opacity:1" fill="#ababab" d="M 1230.5,1143.5 C 1232.22,1147.26 1234.22,1150.93 1236.5,1154.5C 1235.5,1248 1235.17,1341.67 1235.5,1435.5C 1101.5,1435.5 967.5,1435.5 833.5,1435.5C 833.5,1393.17 833.5,1350.83 833.5,1308.5C 838.823,1306.42 843.657,1303.42 848,1299.5C 854.529,1291.78 859.529,1283.12 863,1273.5C 873.641,1242.04 879.475,1209.7 880.5,1176.5C 893.445,1176.31 905.279,1172.64 916,1165.5C 927.123,1176.49 940.289,1179.65 955.5,1175C 971.612,1170.53 984.779,1161.7 995,1148.5C 1001.18,1162.69 1011.68,1171.85 1026.5,1176C 1050.25,1178.75 1070.08,1171.25 1086,1153.5C 1095.41,1165.96 1107.91,1173.46 1123.5,1176C 1157.06,1179.21 1185.72,1169.04 1209.5,1145.5C 1216.91,1146.13 1223.91,1145.46 1230.5,1143.5 Z"/></g>
<g><path style="opacity:1" fill="#7d7c7d" d="M 1371.5,1144.5 C 1381.09,1170.3 1399.42,1180.46 1426.5,1175C 1444.32,1169.01 1459.65,1159.18 1472.5,1145.5C 1499.34,1145.83 1526.01,1145.5 1552.5,1144.5C 1556.88,1154.38 1563.55,1162.55 1572.5,1169C 1606.74,1184.31 1633.74,1176.14 1653.5,1144.5C 1663.83,1145.83 1674.17,1145.83 1684.5,1144.5C 1685.03,1153.91 1687.53,1162.91 1692,1171.5C 1693.73,1173.62 1695.9,1175.12 1698.5,1176C 1706.42,1177.81 1713.25,1175.98 1719,1170.5C 1722.14,1162.58 1724.98,1154.58 1727.5,1146.5C 1754.17,1146.5 1780.83,1146.5 1807.5,1146.5C 1807.5,1242.83 1807.5,1339.17 1807.5,1435.5C 1623.83,1435.5 1440.17,1435.5 1256.5,1435.5C 1256.5,1348.17 1256.5,1260.83 1256.5,1173.5C 1268.17,1177.56 1279.83,1177.39 1291.5,1173C 1305.07,1166.59 1316.41,1157.43 1325.5,1145.5C 1341.01,1145.83 1356.34,1145.5 1371.5,1144.5 Z"/></g>
<g><path style="opacity:1" fill="#e5e4e5" d="M 1236.5,1154.5 C 1236.83,1155.17 1237.17,1155.83 1237.5,1156.5C 1236.83,1249.83 1236.17,1343.17 1235.5,1436.5C 1235.5,1436.17 1235.5,1435.83 1235.5,1435.5C 1235.17,1341.67 1235.5,1248 1236.5,1154.5 Z"/></g>
<g><path style="opacity:1" fill="#aaaaab" d="M 832.5,1274.5 C 832.831,1249.66 832.498,1224.99 831.5,1200.5C 835.638,1187.25 840.472,1174.25 846,1161.5C 845.823,1191.66 843.49,1221.66 839,1251.5C 837.586,1259.5 835.42,1267.17 832.5,1274.5 Z"/></g>
<g><path style="opacity:1" fill="#faf9fb" d="M 831.5,1200.5 C 832.498,1224.99 832.831,1249.66 832.5,1274.5C 830.845,1280.06 827.679,1281.39 823,1278.5C 820.037,1272.54 818.871,1266.21 819.5,1259.5C 820.491,1239.2 824.491,1219.54 831.5,1200.5 Z"/></g>
<g><path style="opacity:1" fill="#c0c0c0" d="M 832.5,1308.5 C 832.833,1308.5 833.167,1308.5 833.5,1308.5C 833.5,1350.83 833.5,1393.17 833.5,1435.5C 967.5,1435.5 1101.5,1435.5 1235.5,1435.5C 1235.5,1435.83 1235.5,1436.17 1235.5,1436.5C 1101.17,1436.5 966.833,1436.5 832.5,1436.5C 832.5,1393.83 832.5,1351.17 832.5,1308.5 Z"/></g>
<g><path style="opacity:1" fill="#9d9d9d" d="M 1727.5,1146.5 C 1727.5,1146.17 1727.5,1145.83 1727.5,1145.5C 1754.5,1145.5 1781.5,1145.5 1808.5,1145.5C 1808.5,1242.5 1808.5,1339.5 1808.5,1436.5C 1624.17,1436.5 1439.83,1436.5 1255.5,1436.5C 1255.5,1348.83 1255.5,1261.17 1255.5,1173.5C 1255.83,1173.5 1256.17,1173.5 1256.5,1173.5C 1256.5,1260.83 1256.5,1348.17 1256.5,1435.5C 1440.17,1435.5 1623.83,1435.5 1807.5,1435.5C 1807.5,1339.17 1807.5,1242.83 1807.5,1146.5C 1780.83,1146.5 1754.17,1146.5 1727.5,1146.5 Z"/></g>
<g><path style="opacity:1" fill="#acacac" d="M 483.5,1456.5 C 593.167,1456.5 702.833,1456.5 812.5,1456.5C 812.5,1522.83 812.5,1589.17 812.5,1655.5C 702.833,1655.5 593.167,1655.5 483.5,1655.5C 483.5,1589.17 483.5,1522.83 483.5,1456.5 Z"/></g>
<g><path style="opacity:1" fill="#606160" d="M 833.5,1456.5 C 967.5,1456.5 1101.5,1456.5 1235.5,1456.5C 1235.5,1522.5 1235.5,1588.5 1235.5,1654.5C 1101.5,1654.5 967.5,1654.5 833.5,1654.5C 833.5,1588.5 833.5,1522.5 833.5,1456.5 Z"/></g>
<g><path style="opacity:1" fill="#878787" d="M 833.5,1456.5 C 833.5,1522.5 833.5,1588.5 833.5,1654.5C 967.5,1654.5 1101.5,1654.5 1235.5,1654.5C 1101.33,1655.5 967.001,1655.83 832.5,1655.5C 832.168,1589 832.501,1522.66 833.5,1456.5 Z"/></g>
<g><path style="opacity:1" fill="#6d6868" d="M 1256.5,1456.5 C 1256.5,1522.5 1256.5,1588.5 1256.5,1654.5C 1440.17,1654.5 1623.83,1654.5 1807.5,1654.5C 1807.5,1588.5 1807.5,1522.5 1807.5,1456.5C 1808.5,1522.66 1808.83,1589 1808.5,1655.5C 1624.17,1655.5 1439.83,1655.5 1255.5,1655.5C 1255.17,1589 1255.5,1522.66 1256.5,1456.5 Z"/></g>
<g><path style="opacity:1" fill="#3d3736" d="M 1256.5,1456.5 C 1440.17,1456.5 1623.83,1456.5 1807.5,1456.5C 1807.5,1522.5 1807.5,1588.5 1807.5,1654.5C 1623.83,1654.5 1440.17,1654.5 1256.5,1654.5C 1256.5,1588.5 1256.5,1522.5 1256.5,1456.5 Z"/></g>
</svg>
