<?xml version="1.0" encoding="UTF-8"?>
<!DOCTYPE svg PUBLIC "-//W3C//DTD SVG 1.1//EN" "http://www.w3.org/Graphics/SVG/1.1/DTD/svg11.dtd">
<svg xmlns="http://www.w3.org/2000/svg" version="1.1" width="2250px" height="2250px" style="shape-rendering:geometricPrecision; text-rendering:geometricPrecision; image-rendering:optimizeQuality; fill-rule:evenodd; clip-rule:evenodd" xmlns:xlink="http://www.w3.org/1999/xlink">
<g><path style="opacity:1" fill="#fefefe" d="M -0.5,-0.5 C 749.5,-0.5 1499.5,-0.5 2249.5,-0.5C 2249.5,749.5 2249.5,1499.5 2249.5,2249.5C 1499.5,2249.5 749.5,2249.5 -0.5,2249.5C -0.5,1499.5 -0.5,749.5 -0.5,-0.5 Z"/></g>
<g><path style="opacity:1" fill="#8c52fe" d="M 395.5,883.5 C 395.409,890.275 393.242,896.275 389,901.5C 371.5,919 354,936.5 336.5,954C 371.556,949.742 406.556,944.742 441.5,939C 457.31,935.846 468.143,941.679 474,956.5C 475.582,964.408 474.249,971.741 470,978.5C 430.605,1018.06 391.105,1057.4 351.5,1096.5C 330.186,1102.68 317.519,1094.84 313.5,1073C 313.93,1068.21 315.263,1063.71 317.5,1059.5C 335.938,1040.56 354.604,1021.73 373.5,1003C 337.452,1007.67 301.452,1013.01 265.5,1019C 249.915,1021.1 239.748,1014.6 235,999.5C 233.595,992.234 234.928,985.567 239,979.5C 271.035,947.632 302.868,915.632 334.5,883.5C 341.632,876.869 348.632,870.036 355.5,863C 370.08,855.52 382.247,858.354 392,871.5C 394.285,875.187 395.452,879.187 395.5,883.5 Z"/></g>
<g><path style="opacity:1" fill="#ce77e7" d="M 334.5,883.5 C 302.868,915.632 271.035,947.632 239,979.5C 234.928,985.567 233.595,992.234 235,999.5C 239.748,1014.6 249.915,1021.1 265.5,1019C 301.452,1013.01 337.452,1007.67 373.5,1003C 354.604,1021.73 335.938,1040.56 317.5,1059.5C 293.215,1084.45 268.548,1109.12 243.5,1133.5C 242.667,1109.51 242.167,1085.51 242,1061.5C 236.064,1045.28 224.564,1039.11 207.5,1043C 199.911,1046.26 194.744,1051.76 192,1059.5C 191.333,1107.5 191.333,1155.5 192,1203.5C 194.404,1212.24 199.904,1218.07 208.5,1221C 256.5,1221.67 304.5,1221.67 352.5,1221C 367.623,1214.93 373.456,1203.76 370,1187.5C 366.439,1179.61 360.605,1174.11 352.5,1171C 327.833,1170.67 303.167,1170.33 278.5,1170C 303.035,1145.63 327.368,1121.13 351.5,1096.5C 391.105,1057.4 430.605,1018.06 470,978.5C 474.249,971.741 475.582,964.408 474,956.5C 468.143,941.679 457.31,935.846 441.5,939C 406.556,944.742 371.556,949.742 336.5,954C 354,936.5 371.5,919 389,901.5C 393.242,896.275 395.409,890.275 395.5,883.5C 420.502,883.333 445.502,883.5 470.5,884C 503.423,889.589 523.256,908.756 530,941.5C 530.98,1034.52 530.647,1127.52 529,1220.5C 520.97,1250.2 501.803,1267.7 471.5,1273C 382.833,1273.67 294.167,1273.67 205.5,1273C 173.095,1266.93 153.595,1247.76 147,1215.5C 146.333,1123.83 146.333,1032.17 147,940.5C 153.824,909.676 172.658,890.842 203.5,884C 247.165,883.5 290.832,883.333 334.5,883.5 Z"/></g>
<g><path style="opacity:1" fill="#6b29ed" d="M 140.5,1281.5 C 140.169,1260.33 140.503,1239.33 141.5,1218.5C 150.889,1258.72 175.889,1282.89 216.5,1291C 302.5,1291.67 388.5,1291.67 474.5,1291C 520.877,1284.29 547.711,1257.79 555,1211.5C 555.667,1121.5 555.667,1031.5 555,941.5C 553.735,933.102 551.235,925.102 547.5,917.5C 548.333,917.167 549.167,916.833 550,916.5C 591.995,929.497 617.662,957.497 627,1000.5C 627.667,1095.5 627.667,1190.5 627,1285.5C 620.987,1323.18 600.82,1350.35 566.5,1367C 559.626,1369.74 552.626,1372.07 545.5,1374C 439.854,1375.65 334.187,1375.98 228.5,1375C 191.854,1368 165.354,1347.84 149,1314.5C 144.439,1303.92 141.606,1292.92 140.5,1281.5 Z"/></g>
<g><path style="opacity:1" fill="#280e61" d="M 1292.5,1002.5 C 1304.88,1000.27 1314.04,1004.61 1320,1015.5C 1321.8,1019.68 1323.13,1024.02 1324,1028.5C 1325.46,1059.01 1319.46,1088.01 1306,1115.5C 1295.02,1138.82 1282.02,1160.82 1267,1181.5C 1267.64,1197.75 1275.81,1203.58 1291.5,1199C 1298.13,1196.37 1303.63,1192.2 1308,1186.5C 1305.41,1161.25 1313.57,1140.41 1332.5,1124C 1347.78,1113.08 1363.78,1111.75 1380.5,1120C 1391.34,1129.2 1394.84,1140.7 1391,1154.5C 1386.76,1168.41 1377.92,1178.25 1364.5,1184C 1357.27,1186.8 1349.93,1189.3 1342.5,1191.5C 1341.42,1192.36 1341.25,1193.36 1342,1194.5C 1345.27,1197.88 1349.1,1200.38 1353.5,1202C 1366.85,1204.11 1379.18,1201.44 1390.5,1194C 1399.39,1188.12 1407.39,1181.12 1414.5,1173C 1419.38,1171.86 1422.55,1173.69 1424,1178.5C 1425.37,1188.71 1422.21,1197.21 1414.5,1204C 1395.91,1221.31 1373.91,1228.64 1348.5,1226C 1336.01,1223.76 1325.68,1217.93 1317.5,1208.5C 1311.52,1213.49 1305.18,1217.99 1298.5,1222C 1288.87,1226.06 1278.87,1227.39 1268.5,1226C 1256.52,1222.69 1248.36,1215.19 1244,1203.5C 1235.43,1213.53 1224.93,1220.7 1212.5,1225C 1200.06,1228.72 1188.9,1226.55 1179,1218.5C 1170.18,1223.58 1160.68,1226.25 1150.5,1226.5C 1149.68,1255.76 1144.18,1284.1 1134,1311.5C 1128.59,1325.2 1118.59,1332.87 1104,1334.5C 1090.41,1332.91 1082.74,1325.24 1081,1311.5C 1079.83,1296.35 1080.83,1281.35 1084,1266.5C 1087.81,1252.58 1092.31,1238.91 1097.5,1225.5C 1090.86,1226.5 1084.19,1226.66 1077.5,1226C 1065.71,1221.05 1060.37,1212.05 1061.5,1199C 1063.44,1183.14 1065.44,1167.3 1067.5,1151.5C 1065.8,1151.34 1064.13,1151.51 1062.5,1152C 1053.51,1162.13 1046.68,1173.63 1042,1186.5C 1038.39,1196.32 1035.39,1206.32 1033,1216.5C 1029.37,1225.17 1022.87,1228.34 1013.5,1226C 1008.85,1223.54 1006.02,1219.71 1005,1214.5C 1003.12,1209.51 1002.28,1204.34 1002.5,1199C 1004.3,1183.5 1005.8,1168 1007,1152.5C 1003.17,1150.74 1000.17,1151.74 998,1155.5C 986.675,1174.47 978.675,1194.8 974,1216.5C 971.994,1223.51 967.328,1226.84 960,1226.5C 954.615,1226.48 950.615,1224.14 948,1219.5C 947,1216.83 946,1214.17 945,1211.5C 934.272,1222.95 921.105,1227.78 905.5,1226C 899.475,1224.08 894.641,1220.58 891,1215.5C 885.829,1206.15 883.663,1196.15 884.5,1185.5C 884.823,1163.06 888.989,1141.4 897,1120.5C 903.945,1113.93 911.778,1112.76 920.5,1117C 923.265,1119.99 924.098,1123.49 923,1127.5C 920,1142.5 917,1157.5 914,1172.5C 910.841,1205.21 920.174,1209.21 942,1184.5C 943.656,1173.92 944.989,1163.25 946,1152.5C 947.488,1141.2 950.821,1130.54 956,1120.5C 962.97,1114.59 970.803,1113.09 979.5,1116C 980.98,1117.3 981.646,1118.97 981.5,1121C 979.255,1131.56 976.755,1142.06 974,1152.5C 972.888,1158.49 972.221,1164.49 972,1170.5C 978.077,1151.43 988.577,1135.26 1003.5,1122C 1009.19,1117.82 1015.52,1115.32 1022.5,1114.5C 1035.06,1115.26 1040.23,1121.92 1038,1134.5C 1035.73,1145.85 1033.73,1157.18 1032,1168.5C 1038.04,1152.24 1047.21,1138.07 1059.5,1126C 1065.44,1121.06 1072.11,1117.4 1079.5,1115C 1097.74,1113.95 1104.24,1122.45 1099,1140.5C 1095.71,1156.43 1092.88,1172.43 1090.5,1188.5C 1090.48,1191.92 1090.98,1195.26 1092,1198.5C 1097.58,1201.1 1102.75,1200.27 1107.5,1196C 1113.8,1190.71 1118.96,1184.54 1123,1177.5C 1123.33,1159.17 1123.67,1140.83 1124,1122.5C 1130.61,1113.78 1139.11,1111.28 1149.5,1115C 1150.33,1115.83 1151.17,1116.67 1152,1117.5C 1152.17,1122.2 1152.67,1126.87 1153.5,1131.5C 1158.5,1124.66 1164.84,1119.49 1172.5,1116C 1194.31,1111.16 1207.81,1119.66 1213,1141.5C 1215.52,1162.59 1210.69,1181.75 1198.5,1199C 1204.95,1201.16 1211.28,1200.82 1217.5,1198C 1224.63,1193.21 1230.79,1187.37 1236,1180.5C 1234.08,1137.05 1240.08,1094.71 1254,1053.5C 1259.11,1039.95 1265.77,1027.28 1274,1015.5C 1279.26,1009.72 1285.43,1005.38 1292.5,1002.5 Z"/></g>
<g><path style="opacity:1" fill="#280d61" d="M 1940.5,1154.5 C 1939.35,1159.65 1939.18,1164.98 1940,1170.5C 1940.72,1169.96 1941.22,1169.29 1941.5,1168.5C 1947.84,1149.97 1958.51,1134.47 1973.5,1122C 1989.21,1110.73 2003.37,1112.23 2016,1126.5C 2024.42,1152.68 2016.42,1172.35 1992,1185.5C 1991.54,1193.06 1995.04,1197.89 2002.5,1200C 2009.43,1201.46 2015.76,1200.13 2021.5,1196C 2028.86,1188.97 2035.86,1181.64 2042.5,1174C 2050.65,1171.8 2054.32,1175.13 2053.5,1184C 2053.73,1188.08 2052.89,1191.91 2051,1195.5C 2043.79,1205.71 2034.96,1214.21 2024.5,1221C 2009.13,1228.26 1993.79,1228.26 1978.5,1221C 1962.38,1209.98 1958.04,1195.65 1965.5,1178C 1970.41,1175.14 1975.41,1172.48 1980.5,1170C 1989.9,1163.31 1991.9,1154.97 1986.5,1145C 1982.88,1144.16 1979.55,1144.83 1976.5,1147C 1963.9,1160.02 1954.73,1175.19 1949,1192.5C 1946.49,1201.55 1943.82,1210.55 1941,1219.5C 1936.43,1225.8 1930.27,1227.97 1922.5,1226C 1920.38,1224.88 1918.54,1223.38 1917,1221.5C 1913.26,1210.51 1911.26,1199.17 1911,1187.5C 1897.8,1194.78 1885.14,1194.11 1873,1185.5C 1871.08,1182.66 1869.41,1179.66 1868,1176.5C 1867.81,1168.25 1867.64,1160.08 1867.5,1152C 1865.83,1151.33 1864.17,1151.33 1862.5,1152C 1852.66,1162.5 1845.49,1174.67 1841,1188.5C 1837.69,1198.41 1834.69,1208.41 1832,1218.5C 1827.82,1225.44 1821.65,1227.94 1813.5,1226C 1807.65,1222.13 1804.48,1216.63 1804,1209.5C 1802.76,1199.87 1802.26,1190.21 1802.5,1180.5C 1796.21,1181.46 1789.87,1182.13 1783.5,1182.5C 1776.52,1213.66 1757.19,1228.16 1725.5,1226C 1708.23,1221.07 1697.4,1209.9 1693,1192.5C 1688.97,1177.08 1690.14,1162.08 1696.5,1147.5C 1687.46,1146.77 1678.46,1145.77 1669.5,1144.5C 1662.3,1156.9 1654.8,1169.23 1647,1181.5C 1636.46,1196.38 1623.62,1208.88 1608.5,1219C 1597.6,1225.1 1585.93,1227.43 1573.5,1226C 1563.15,1222.32 1555.65,1215.48 1551,1205.5C 1543.41,1186.24 1539.41,1166.24 1539,1145.5C 1531.78,1165.28 1522.44,1183.95 1511,1201.5C 1502.14,1214.01 1490.31,1222.18 1475.5,1226C 1462.39,1228.52 1451.56,1224.69 1443,1214.5C 1435.47,1203.6 1430.47,1191.6 1428,1178.5C 1425.87,1167.9 1424.2,1157.24 1423,1146.5C 1421.02,1109.55 1423.36,1072.88 1430,1036.5C 1434.78,1024.91 1443.28,1021.08 1455.5,1025C 1459.33,1026.17 1461.83,1028.67 1463,1032.5C 1460.85,1057.16 1458.52,1081.82 1456,1106.5C 1455.26,1123.19 1455.59,1139.85 1457,1156.5C 1458.42,1166.83 1461.08,1176.83 1465,1186.5C 1467.94,1192.05 1472.44,1194.55 1478.5,1194C 1482.96,1192.02 1486.79,1189.19 1490,1185.5C 1502.36,1168.45 1511.7,1149.78 1518,1129.5C 1527.94,1098.7 1535.6,1067.36 1541,1035.5C 1546.45,1025.03 1554.95,1021.53 1566.5,1025C 1574.1,1028.43 1576.6,1034.26 1574,1042.5C 1567.83,1078.23 1565.83,1114.23 1568,1150.5C 1568.14,1163.07 1570.81,1175.07 1576,1186.5C 1583.99,1195.89 1593.15,1197.06 1603.5,1190C 1620.09,1174.51 1632.76,1156.18 1641.5,1135C 1618.99,1117.45 1609.49,1094.28 1613,1065.5C 1614.49,1049.68 1621.32,1036.84 1633.5,1027C 1643.33,1020.83 1654,1018.83 1665.5,1021C 1678.74,1025.92 1686.57,1035.42 1689,1049.5C 1690.17,1064.65 1689.17,1079.65 1686,1094.5C 1683.39,1103.49 1680.89,1112.49 1678.5,1121.5C 1689.16,1122.11 1699.82,1122.61 1710.5,1123C 1711.5,1123.5 1712.5,1124 1713.5,1124.5C 1730.97,1112.13 1748.97,1111.3 1767.5,1122C 1778.41,1131.33 1784.41,1143.16 1785.5,1157.5C 1791.82,1156.72 1798.15,1156.06 1804.5,1155.5C 1805.72,1145.94 1807.89,1136.61 1811,1127.5C 1814.63,1118.26 1821.47,1113.93 1831.5,1114.5C 1834.25,1114.35 1836.75,1115.02 1839,1116.5C 1839.67,1119.83 1839.67,1123.17 1839,1126.5C 1836.87,1136.55 1834.54,1146.55 1832,1156.5C 1831,1161.14 1830.67,1165.81 1831,1170.5C 1837.7,1150.59 1849.2,1134.09 1865.5,1121C 1871.14,1117.26 1877.3,1115.09 1884,1114.5C 1897.05,1115.57 1902.05,1122.57 1899,1135.5C 1897.83,1142.5 1896.67,1149.5 1895.5,1156.5C 1895.26,1161.39 1897.43,1164.39 1902,1165.5C 1904.99,1164.75 1907.83,1163.59 1910.5,1162C 1912.26,1130.39 1917.1,1099.22 1925,1068.5C 1930.32,1049.84 1938.32,1032.51 1949,1016.5C 1957.31,1005.76 1968.15,1001.26 1981.5,1003C 1989.64,1005.81 1995.14,1011.31 1998,1019.5C 2001.7,1037.27 2000.04,1054.6 1993,1071.5C 1979.62,1098.93 1962.28,1123.6 1941,1145.5C 1940.5,1148.48 1940.34,1151.48 1940.5,1154.5 Z"/></g>
<g><path style="opacity:1" fill="#280e61" d="M 795.5,1023.5 C 812.284,1022.35 828.618,1024.52 844.5,1030C 871.838,1043.66 879.672,1064.83 868,1093.5C 859.998,1102.46 851.665,1102.79 843,1094.5C 841.101,1091.63 840.267,1088.46 840.5,1085C 846.841,1067.01 840.841,1055.68 822.5,1051C 806.385,1047.49 791.051,1049.49 776.5,1057C 765.683,1066.75 763.517,1078.25 770,1091.5C 775.59,1098.22 782.423,1103.39 790.5,1107C 806.734,1113.45 822.734,1120.45 838.5,1128C 866.574,1146.81 872.074,1170.98 855,1200.5C 845.729,1211.89 833.895,1219.39 819.5,1223C 792.207,1230.29 765.541,1228.62 739.5,1218C 723.85,1209.38 716.183,1196.05 716.5,1178C 715.291,1166.42 719.624,1157.75 729.5,1152C 736.375,1150.52 742.208,1152.35 747,1157.5C 748.022,1159.7 748.522,1162.04 748.5,1164.5C 742.233,1183.99 748.899,1195.82 768.5,1200C 784.098,1202.71 799.432,1201.71 814.5,1197C 828.608,1190.95 833.775,1180.45 830,1165.5C 824.276,1156.79 816.442,1150.62 806.5,1147C 788.387,1140.61 771.053,1132.61 754.5,1123C 736.304,1108.75 729.804,1090.25 735,1067.5C 740.247,1049.92 751.414,1037.75 768.5,1031C 777.478,1028.01 786.478,1025.51 795.5,1023.5 Z"/></g>
<g><path style="opacity:1" fill="#fafafb" d="M 1266.5,1147.5 C 1265.53,1145.05 1265.19,1142.39 1265.5,1139.5C 1267.07,1104.88 1273.57,1071.22 1285,1038.5C 1286.79,1034.42 1288.95,1030.59 1291.5,1027C 1296.97,1024.43 1300.14,1026.27 1301,1032.5C 1302.38,1051.3 1300.05,1069.63 1294,1087.5C 1287.25,1108.66 1278.08,1128.66 1266.5,1147.5 Z"/></g>
<g><path style="opacity:1" fill="#f8f8fa" d="M 1969.5,1025.5 C 1973.72,1025.91 1976.22,1028.24 1977,1032.5C 1978.34,1046.79 1976.01,1060.46 1970,1073.5C 1963.34,1088.84 1954.67,1102.84 1944,1115.5C 1945.52,1096.55 1948.86,1077.88 1954,1059.5C 1956.48,1049.39 1960.15,1039.73 1965,1030.5C 1966.06,1028.34 1967.56,1026.67 1969.5,1025.5 Z"/></g>
<g><path style="opacity:1" fill="#270c60" d="M 317.5,1059.5 C 315.263,1063.71 313.93,1068.21 313.5,1073C 317.519,1094.84 330.186,1102.68 351.5,1096.5C 327.368,1121.13 303.035,1145.63 278.5,1170C 303.167,1170.33 327.833,1170.67 352.5,1171C 360.605,1174.11 366.439,1179.61 370,1187.5C 373.456,1203.76 367.623,1214.93 352.5,1221C 304.5,1221.67 256.5,1221.67 208.5,1221C 199.904,1218.07 194.404,1212.24 192,1203.5C 191.333,1155.5 191.333,1107.5 192,1059.5C 194.744,1051.76 199.911,1046.26 207.5,1043C 224.564,1039.11 236.064,1045.28 242,1061.5C 242.167,1085.51 242.667,1109.51 243.5,1133.5C 268.548,1109.12 293.215,1084.45 317.5,1059.5 Z"/></g>
<g><path style="opacity:1" fill="#fbfafc" d="M 1647.5,1047.5 C 1654.24,1046.28 1658.41,1048.95 1660,1055.5C 1660.67,1062.83 1660.67,1070.17 1660,1077.5C 1658.13,1088.32 1655.63,1098.99 1652.5,1109.5C 1651.45,1109.65 1650.45,1109.48 1649.5,1109C 1642.08,1101.77 1637.92,1092.94 1637,1082.5C 1635.28,1071.9 1636.95,1061.9 1642,1052.5C 1643.73,1050.6 1645.56,1048.93 1647.5,1047.5 Z"/></g>
<g><path style="opacity:1" fill="#290f61" d="M 909.5,1062.5 C 914.844,1062.33 920.177,1062.5 925.5,1063C 936.877,1066.59 940.71,1074.09 937,1085.5C 934.623,1092.55 929.79,1096.71 922.5,1098C 904.188,1102 895.355,1094.83 896,1076.5C 898.687,1069.98 903.187,1065.31 909.5,1062.5 Z"/></g>
<g><path style="opacity:1" fill="#fafafc" d="M 1169.5,1138.5 C 1176.08,1137.04 1180.58,1139.37 1183,1145.5C 1185.82,1166.71 1179.32,1184.55 1163.5,1199C 1160.03,1201.07 1156.36,1202.57 1152.5,1203.5C 1152.33,1187.5 1152.5,1171.5 1153,1155.5C 1157.36,1148.64 1162.86,1142.97 1169.5,1138.5 Z"/></g>
<g><path style="opacity:1" fill="#fbfafc" d="M 1339.5,1172.5 C 1337.66,1170.72 1336.99,1168.39 1337.5,1165.5C 1338,1153.98 1343,1145.15 1352.5,1139C 1366.2,1137.72 1370.37,1143.56 1365,1156.5C 1358.52,1164.99 1350.02,1170.33 1339.5,1172.5 Z"/></g>
<g><path style="opacity:1" fill="#fbfbfc" d="M 1738.5,1139.5 C 1740.17,1139.5 1741.83,1139.5 1743.5,1139.5C 1741.62,1155.2 1746.62,1168.2 1758.5,1178.5C 1756.93,1188.84 1751.6,1196.34 1742.5,1201C 1732.06,1202.19 1725.23,1197.69 1722,1187.5C 1719.35,1175.17 1720.35,1163.17 1725,1151.5C 1728.48,1146.18 1732.98,1142.18 1738.5,1139.5 Z"/></g>
<g><path style="opacity:1" fill="#988cb3" d="M 1265.5,1139.5 C 1265.19,1142.39 1265.53,1145.05 1266.5,1147.5C 1266.22,1148.29 1265.72,1148.96 1265,1149.5C 1264.19,1145.97 1264.36,1142.64 1265.5,1139.5 Z"/></g>
<g><path style="opacity:1" fill="#6b5892" d="M 1940.5,1154.5 C 1940.18,1159.36 1940.51,1164.03 1941.5,1168.5C 1941.22,1169.29 1940.72,1169.96 1940,1170.5C 1939.18,1164.98 1939.35,1159.65 1940.5,1154.5 Z"/></g>
<g><path style="opacity:1" fill="#978ab3" d="M 1337.5,1165.5 C 1336.99,1168.39 1337.66,1170.72 1339.5,1172.5C 1338.79,1173.4 1337.79,1173.74 1336.5,1173.5C 1336.19,1170.61 1336.53,1167.95 1337.5,1165.5 Z"/></g>
<g><path style="opacity:1" fill="#c8aff8" d="M 141.5,1218.5 C 140.503,1239.33 140.169,1260.33 140.5,1281.5C 139.334,1189.67 139.168,1097.67 140,1005.5C 140.176,1076.53 140.676,1147.53 141.5,1218.5 Z"/></g>
<g><path style="opacity:1" fill="#faf9fb" d="M 1121.5,1217.5 C 1122.47,1219.95 1122.81,1222.61 1122.5,1225.5C 1121.77,1248.3 1119.6,1270.97 1116,1293.5C 1114.8,1299.44 1112.64,1304.94 1109.5,1310C 1105.39,1310.57 1102.89,1308.74 1102,1304.5C 1100.76,1291.32 1101.76,1278.32 1105,1265.5C 1109.41,1249.1 1114.91,1233.1 1121.5,1217.5 Z"/></g>
<g><path style="opacity:1" fill="#9385b0" d="M 1122.5,1225.5 C 1122.81,1222.61 1122.47,1219.95 1121.5,1217.5C 1121.46,1216.24 1121.96,1215.24 1123,1214.5C 1123.81,1218.36 1123.64,1222.02 1122.5,1225.5 Z"/></g>
</svg>
